<svg xmlns="http://www.w3.org/2000/svg" width="80" height="80" viewBox="0 0 80 80"><defs><clipPath id="a"><path fill="#fff" d="M704 2502a40 40 0 1 1 0 80 40 40 0 0 1 0-80z"/></clipPath></defs><path fill="#fff" d="M40 0a40 40 0 1 1 0 80 40 40 0 0 1 0-80z"/><path fill="none" stroke="#e45552" stroke-linecap="round" stroke-linejoin="round" stroke-miterlimit="50" stroke-width="4" d="M704 2502a40 40 0 1 1 0 80 40 40 0 0 1 0-80z" clip-path="url(&quot;#a&quot;)" transform="translate(-664 -2502)"/><path fill="#e45552" d="M19.1 51.07V23.94H44v7.03c.45-.08-.17-.14.3-.14.25 0 1.5.05 1.74.07v-8.91H16.97v30.98h19.22v-1.9H19.1zm20.94-16.12H22v2h17.9c.15-.79-.23-1.31.14-2zM42 31v-2H22v2zm-3.15 9.97h-16.9V43h16.9c.4-.24.3-1.44 0-2.03zM50.2 49.43c-3.62 0-6.97-3.89-6.97-8.35 0-4.46 3.35-7.82 6.98-7.82 1.8 0 3.47.6 4.71 2.17 1.2 1.52 2.66 3.53 2.66 5.65 0 4.46-3.74 8.35-7.37 8.35zm0-14.4c-2.65 0-5.34 2.57-5.34 6.05s2.69 6.84 5.35 6.84c2.66 0 5.48-3.36 5.48-6.84s-2.82-6.05-5.48-6.05zM37.5 55.55c0 1.37 1.1 2.13 2.46 2.13h20.52c1.35 0 2.46-.76 2.46-2.13a7.24 7.24 0 0 0-7.2-7.27c-.48 0-.87.4-.87.89s.39.88.87.88c3 0 5.44 2.47 5.44 5.5 0 .39-.31.49-.7.49H39.95c-.4 0-.7-.1-.7-.49 0-3.03 2.43-5.5 5.43-5.5.49 0 .88-.39.88-.88s-.4-.89-.88-.89a7.24 7.24 0 0 0-7.2 7.27z"/></svg>