<svg xmlns="http://www.w3.org/2000/svg" width="80" height="80" viewBox="0 0 80 80"><defs><clipPath id="a"><path fill="#fff" d="M1105 2502a40 40 0 1 1 0 80 40 40 0 0 1 0-80z"/></clipPath></defs><path fill="#fff" d="M40 0a40 40 0 1 1 0 80 40 40 0 0 1 0-80z"/><path fill="none" stroke="#e45552" stroke-linecap="round" stroke-linejoin="round" stroke-miterlimit="50" stroke-width="4" d="M1105 2502a40 40 0 1 1 0 80 40 40 0 0 1 0-80z" clip-path="url(&quot;#a&quot;)" transform="translate(-1065 -2502)"/><path fill="#e45552" d="M41.48 48.72c-5.73 0-10.38-5.73-10.38-12.76 0-7.04 4.65-12.88 10.38-12.88 2.83 0 5.48 1.49 7.44 3.97a14.33 14.33 0 0 1 2.94 8.91c0 7.03-4.66 12.76-10.38 12.76zm0-23.63c-4.2 0-8.75 5.37-8.75 10.87 0 5.49 4.55 11.09 8.75 11.09s8.75-5.6 8.75-11.09c0-5.5-4.55-10.87-8.75-10.87zm-8.72 22.23c.77 0 .97.21.97.98s-.62 1.4-1.39 1.4a8.64 8.64 0 0 0-8.58 8.67c0 .61.92 1.59 1.53 1.59h32.39c.6 0 1.52-.97 1.52-1.59a8.64 8.64 0 0 0-8.58-8.67 1.4 1.4 0 0 1-1.39-1.4c0-.77.21-.98.97-.98 6.26 0 11.35 5.14 11.35 11.47 0 2.16-1.74 2.84-3.87 2.84H25.29c-2.14 0-3.88-.68-3.88-2.84 0-6.33 5.09-11.47 11.35-11.47zm7.14-26.24a6 6 0 0 0-3.14-.9c-4.2 0-7.61 4.47-7.61 9.97 0 .98.11 1.95.32 2.87a1.39 1.39 0 0 1-1.35 1.72c-.63 0-.63.13-.78-.51a15.82 15.82 0 0 1-.39-3.52c0-7.03 4.65-12.76 10.38-12.76a9 9 0 0 1 4.55 1.28c.66.4.31.69-.08 1.35-.39.67-1.24.89-1.9.5zm-22.64 32.2c0 .56.11 1.1.33 1.6.23.52.35.45.88.45a1.4 1.4 0 0 0 1.27-1.97c-.07-.14-.1-.3-.1-.46 0-4.78 3.58-8.76 8.31-8.76a1.4 1.4 0 0 0 1.38-1.4c0-.77-.23-1.01-1-1.01-6.26 0-11.07 5.24-11.07 11.55z"/></svg>